<svg xmlns="http://www.w3.org/2000/svg" width="16" height="16"><style type="text/css">.icon-canvas-transparent{opacity:0;fill:#F6F6F6;} .icon-folder{fill:#DCB67A;} .icon-white{fill:#FFFFFF;} .icon-vso-bg{fill:#656565;}</style><path class="icon-canvas-transparent" d="M16 16h-16v-16h16v16z" id="canvas"/><path class="icon-white" d="M16 2.5v10c0 .827-.673 1.5-1.5 1.5h-11.996c-.827 0-1.5-.673-1.5-1.5v-8c0-.827.673-1.5 1.5-1.5h2.886l1-2h8.11c.827 0 1.5.673 1.5 1.5z" id="outline"/><path class="icon-folder" d="M15 2.5v10c0 .276-.225.5-.5.5h-.5v-10h-5.992l-.5 1h2.492v9h-7.496c-.277 0-.504-.224-.504-.5v-8c0-.276.227-.5.504-.5h3.504l1-2h7.492c.275 0 .5.224.5.5z" id="iconBg"/><path class="icon-vso-bg" d="M13 3v1h-2v-1h2zm0 1v2h-2v-2h-1v9h1v-1h1v-1h-1v-1h1v-1h-1v-1h1v-1h1v1h-1v1h1v1h-1v1h1v1h-1v1h2v-9h-1z" id="colorImportance"/><path class="icon-white" d="M13 6h-2v-2h2v2zm0 1h-1v1h1v-1zm-1 1h-1v1h1v-1zm0 2h1v-1h-1v1zm-1 1h1v-1h-1v1zm1 1h1v-1h-1v1zm-1 1h1v-1h-1v1zm3-10h-1v1h1v-1zm-3 0h-3l-.5 1h3.5v-1z" id="iconFg"/></svg>