<svg xmlns="http://www.w3.org/2000/svg" width="16" height="16"><style type="text/css">.icon-canvas-transparent{opacity:0;fill:#F6F6F6;} .icon-vs-out{fill:#F6F6F6;} .icon-vs-bg{fill:#424242;} .icon-vs-fg{fill:#F0EFF1;} .icon-folder{fill:#DCB67A;}</style><path class="icon-canvas-transparent" d="M16 16h-16v-16h16v16z" id="canvas"/><path class="icon-vs-out" d="M16 2.5v10c0 .827-.673 1.5-1.5 1.5h-11.996c-.827 0-1.5-.673-1.5-1.5v-8c0-.827.673-1.5 1.5-1.5h2.886l1-2h8.11c.827 0 1.5.673 1.5 1.5z" id="outline"/><g id="iconBg"><path class="icon-folder" d="M15 2.5v10c0 .276-.225.5-.5.5h-.5v-10h-5.992l-.5 1h2.492v9h-7.496c-.277 0-.504-.224-.504-.5v-8c0-.276.227-.5.504-.5h3.504l1-2h7.492c.275 0 .5.224.5.5z"/><path class="icon-vs-bg" d="M13 3v1h-2v-1h2zm0 1v2h-2v-2h-1v9h1v-1h1v-1h-1v-1h1v-1h-1v-1h1v-1h1v1h-1v1h1v1h-1v1h1v1h-1v1h2v-9h-1z"/></g><path class="icon-vs-fg" d="M11 3v1h-3.5l.5-1h3zm2 0v1h1v-1h-1zm0 4h-1v1h1v-1zm0 2h-1v1h1v-1zm-2 1v1h1v-1h-1zm2 1h-1v1h1v-1zm-2 1v1h1v-1h-1zm0-4v1h1v-1h-1zm2-2v-2h-2v2h2z" id="iconFg"/></svg>