<svg xmlns="http://www.w3.org/2000/svg" viewBox="0 0 16 16" enable-background="new 0 0 16 16"><style type="text/css">.icon-canvas-transparent{opacity:0;fill:#F6F6F6;} .icon-vs-out{fill:#F6F6F6;} .icon-vs-bg{fill:#424242;} .icon-vs-fg{fill:#F0EFF1;}</style><path class="icon-canvas-transparent" d="M16 16h-16v-16h16v16z" id="canvas"/><path class="icon-vs-out" d="M4 15c-.97 0-2-.701-2-2v-10c0-1.299 1.03-2 2-2h6.061l3.939 3.556v8.444c0 .97-.701 2-2 2h-8z" id="outline"/><path class="icon-vs-bg" d="M9.64 2h-5.676s-.964 0-.964 1v10c0 1 .964 1 .964 1h8l1.036-1v-8l-3.36-3zm2.36 11h-8v-10h5v3h3v7zm-4-7h-3v-1h3v1zm3 2h-6v-1h6v1zm0 2h-6v-1h6v1zm0 2h-6v-1h6v1z" id="iconBg"/><g id="iconFg"><path class="icon-vs-fg" d="M9 6v-3h-5v10h8v-7h-3zm-4-1h3v1h-3v-1zm6 7h-6v-1h6v1zm0-2h-6v-1h6v1zm0-2h-6v-1h6v1z"/></g></svg>