<svg xmlns="http://www.w3.org/2000/svg" width="16" height="16"><style type="text/css">.icon-canvas-transparent{opacity:0;fill:#F6F6F6;} .icon-white{fill:#FFFFFF;} .icon-npm-red{fill:#CB3837;}</style><path class="icon-canvas-transparent" d="M16 16h-16v-16h16v16z" id="canvas"/><path class="icon-white" d="M16 16h-16v-16h16v16z" id="outline"/><path class="icon-npm-red" d="M1 15v-14h14v14h-14z" id="iconBg"/><g id="iconFg"><path class="icon-white" d="M5 6v5h-1v-4h-1v4h-1v-5h3zm4 0v4h-2v1h-1v-5h3zm-1 1h-1v2h1v-2zm2-1v5h1v-4h.798l.002 4h.898l.002-4h.8l.002 4h.498v-5h-4z"/></g></svg>