<svg xmlns="http://www.w3.org/2000/svg" width="16" height="16"><style type="text/css">.icon-canvas-transparent{opacity:0;fill:#F6F6F6;} .icon-vs-out{fill:#F6F6F6;} .icon-git-orange{fill:#F05133;}</style><path class="icon-canvas-transparent" d="M16 16h-16v-16h16v16z" id="canvas"/><path class="icon-vs-out" d="M8.015 16c-.508 0-.985-.197-1.345-.556l-6.113-6.111c-.743-.743-.743-1.951 0-2.693l6.083-6.082c.36-.36.838-.558 1.346-.558.509 0 .987.199 1.346.559l6.111 6.11c.742.742.742 1.95 0 2.693l-6.082 6.082c-.362.359-.839.556-1.346.556z" id="outline"/><g id="iconBg"><path class="icon-git-orange" d="M14.736 8.667l-6.071 6.071c-.352.35-.921.35-1.272 0l-6.1-6.099c-.352-.352-.352-.922 0-1.273l4.182-4.182 1.585 1.584c-.162.389-.086.854.23 1.17.104.104.074.057.202.109v3.867c-.116.047-.176.126-.263.216-.23.204-.377.499-.377.831 0 .617.5 1.117 1.117 1.117l.233-.024c.22-.032.433-.13.602-.299.373-.372.411-.95.119-1.368-.098-.162-.236-.297-.401-.391v-3.758l1.444 1.443c-.16.388-.082.85.232 1.165.418.418 1.096.418 1.516 0 .418-.418.418-1.096 0-1.514-.301-.3-.732-.383-1.107-.254l-1.55-1.548c.131-.375.047-.807-.253-1.107-.298-.296-.726-.381-1.099-.255l-1.607-1.606 1.267-1.267c.352-.351.922-.351 1.272 0l6.1 6.099c.351.351.351.921-.001 1.273z"/></g></svg>