<svg xmlns="http://www.w3.org/2000/svg" width="16" height="16"><style type="text/css">.icon-canvas-transparent{opacity:0;fill:#F6F6F6;} .icon-white{fill:#FFFFFF;}</style><path class="icon-canvas-transparent" d="M16 16h-16v-16h16v16z" id="canvas"/><path class="icon-white" d="M13.707 8.105l-5.634 5.675c-.159.155-.365.243-.589.243-.227 0-.431-.086-.591-.243l-5.659-5.701c-.327-.327-.326-.855-.001-1.181l3.856-3.856 1.385 1.386c-.056.132-.087.276-.087.427 0 .427.254.784.613.96v3.329c-.453.194-.771.644-.771 1.168 0 .702.569 1.271 1.271 1.271s1.271-.569 1.271-1.271c0-.524-.318-.974-.771-1.168v-3.19l1.085 1.086c-.048.118-.085.241-.085.377 0 .349.168.648.416.854.201.205.481.324.797.324.601 0 1.085-.468 1.085-1.068 0-.172-.049-.331-.121-.476-.153-.44-.56-.76-1.052-.76-.152 0-.298.032-.431.087l-1.205-1.215c.031-.1.067-.197.067-.308 0-.6-.486-1.086-1.085-1.086-.107 0-.202.036-.298.065l-1.431-1.443 1.125-1.125c.161-.158.365-.245.589-.245.227 0 .431.087.592.245l5.66 5.66c.321.324.324.854-.001 1.179z" id="iconBg"/></svg>