<svg xmlns="http://www.w3.org/2000/svg" width="16" height="16"><style type="text/css">.icon-canvas-transparent{opacity:0;fill:#F6F6F6;} .icon-white{fill:#FFFFFF;} .icon-vso-bg{fill:#656565;}</style><path class="icon-canvas-transparent" d="M16 16h-16v-16h16v16z" id="canvas"/><path class="icon-white" d="M15 0v15h-14v-15h14z" id="outline"/><path class="icon-vso-bg" d="M2 1v1h1v1h-1v1h1v1h-1v1h1v1h-1v1h1v1h-1v1h1v1h-1v1h1v1h-1v1h12v-13h-12zm11 12h-9v-11h9v11zm-2-9v2h-5v-2h5z" id="iconBg"/><path class="icon-white" d="M4 2v11h9v-11h-9zm7 3v1h-5v-2h5v1z" id="iconFg"/></svg>